<svg xmlns="http://www.w3.org/2000/svg" width="16" height="16" viewBox="0 0 256 256" fill="currentColor"><path d="M197.67,186.37a8,8,0,0,1,0,11.29C196.58,198.73,170.82,224,128,224A95.38,95.38,0,0,1,32.79,128.79c0-53.05,42.96-96,96-96A95.94,95.94,0,0,1,195.6,48.31l1.66-7.57a8,8,0,1,1,15.62,3.43l-8.78,40a8,8,0,0,1-9.5,6.06l-40-8.78a8,8,0,1,1,3.43-15.62L188.34,80l-3.41-3.45A79.94,79.94,0,0,0,128,56.79c-44.12,0-80,35.88-80,80A79.4,79.4,0,0,0,128,208c36.46,0,57.93-21.49,58.55-22.16A8,8,0,0,1,197.67,186.37Z"/></svg>
