<svg xmlns="http://www.w3.org/2000/svg" width="16" height="16" viewBox="0 0 256 256" fill="currentColor"><path d="M137.54,186.36a8,8,0,0,1,0,11.31l-9.94,10A56,56,0,0,1,48.38,128.4l21-21a8,8,0,1,1,11.31,11.31l-21,21A40,40,0,0,0,116.34,196.3l9.89-10A8,8,0,0,1,137.54,186.36ZM207.62,48.38a56.08,56.08,0,0,0-79.22,0l-9.94,9.95a8,8,0,0,0,11.32,11.31l9.94-9.94a40,40,0,0,1,56.58,56.58l-21,21a8,8,0,1,0,11.31,11.31l21-21A56.09,56.09,0,0,0,207.62,48.38ZM160,72a8,8,0,0,0-11.31,0L88,132.69a8,8,0,1,0,11.31,11.31L160,83.31A8,8,0,0,0,160,72Z"/></svg>
