<svg xmlns="http://www.w3.org/2000/svg" width="16" height="16" viewBox="0 0 256 256" fill="currentColor"><path d="M224,128a8,8,0,0,1-8,8H104a8,8,0,0,1,0-16H216A8,8,0,0,1,224,128ZM104,72H216a8,8,0,0,0,0-16H104a8,8,0,0,0,0,16Zm112,112H104a8,8,0,0,0,0,16H216a8,8,0,0,0,0-16ZM43.58,55.16,48,52.94V104a8,8,0,0,0,16,0V40a8,8,0,0,0-11.58-7.16l-16,8a8,8,0,0,0,7.16,14.32ZM79.66,196.38a8,8,0,0,1-.25,11.31C77.18,209.79,72.36,214,64,214c-12.13,0-22-8.07-22-18a14.16,14.16,0,0,1,5.18-10.49C50.42,180.36,56,176.42,58.86,174.46c1.31-.91,1.6-1.65,1.6-2.46a4,4,0,0,0-4-4,5.78,5.78,0,0,0-4.55,1.95,8,8,0,1,1-11.32-11.32A21.61,21.61,0,0,1,56,152a20,20,0,0,1,16,32c-1.81,1.32-3.86,2.78-5.59,4-2,1.42-3.7,2.65-4.92,3.65a4.32,4.32,0,0,0-1.49,2.39c0,1.4,1.85,2,2,2a3.84,3.84,0,0,0,2.42-.69,8,8,0,0,1,11.24.06Z"/></svg>
