<svg width="28" height="28" viewBox="0 0 28 28" fill="none" xmlns="http://www.w3.org/2000/svg">
<g clip-path="url(#clip0_729_37895)">
<path d="M21.0005 0L25.6665 4.66699V27C25.6665 27.5523 25.2188 28 24.6665 28H3.3335C2.78121 28 2.3335 27.5523 2.3335 27V1C2.3335 0.447715 2.78121 0 3.3335 0H21.0005Z" fill="#E9F0FA"/>
<path d="M25.6665 4.66699H21.0005V0L25.6665 4.66699Z" fill="#C2CDDE"/>
</g>
<rect x="1.1665" y="11.6665" width="25.6667" height="11.6667" rx="1" fill="#7248F1"/>
<path d="M5.71058 14.6818H7.00036L8.72763 18.8977H8.79581L10.5231 14.6818H11.8129V20.5H10.8015V16.5028H10.7475L9.13956 20.483H8.38388L6.77592 16.4943H6.72195V20.5H5.71058V14.6818ZM12.9606 20.5V14.6818H15.1424C15.5894 14.6818 15.9644 14.7652 16.2674 14.9318C16.5723 15.0985 16.8024 15.3277 16.9577 15.6193C17.1149 15.9091 17.1935 16.2386 17.1935 16.608C17.1935 16.9811 17.1149 17.3125 16.9577 17.6023C16.8005 17.892 16.5685 18.1203 16.2617 18.2869C15.9549 18.4517 15.5771 18.5341 15.1282 18.5341H13.6822V17.6676H14.9862C15.2475 17.6676 15.4615 17.6222 15.6282 17.5312C15.7949 17.4403 15.918 17.3153 15.9975 17.1562C16.079 16.9972 16.1197 16.8144 16.1197 16.608C16.1197 16.4015 16.079 16.2197 15.9975 16.0625C15.918 15.9053 15.7939 15.7831 15.6254 15.696C15.4587 15.607 15.2437 15.5625 14.9805 15.5625H14.0146V20.5H12.9606ZM17.9471 19.4205V18.5824L20.4158 14.6818H21.1147V15.875H20.6886L19.0266 18.5085V18.554H22.4727V19.4205H17.9471ZM20.7227 20.5V19.1648L20.734 18.7898V14.6818H21.7283V20.5H20.7227Z" fill="white"/>
<defs>
<clipPath id="clip0_729_37895">
<rect width="23.3333" height="28" fill="white" transform="translate(2.3335)"/>
</clipPath>
</defs>
</svg>
