<svg xmlns="http://www.w3.org/2000/svg" width="16" height="16" viewBox="0 0 256 256" fill="currentColor"><path d="M232,128a8,8,0,0,1-8,8H184.69c4.49,5.66,7.31,12.55,7.31,20,0,21.46-21.52,36-44,36-15.39,0-29.06-5.4-39.69-15.6a8,8,0,0,1,11.08-11.54C127.18,172.51,137.46,176,148,176c12.94,0,28-7.39,28-20,0-7.66-5.31-13.43-15.78-17.16A8,8,0,0,1,159,136H32a8,8,0,0,1,0-16H93.21C77.59,108.91,70,98.65,70,88c0-22.06,22.43-40,50-40,17.84,0,33.94,7.43,42,19.39a8,8,0,1,1-13.24,9C144.18,69.07,133.13,64,120,64c-18.74,0-34,10.78-34,24,0,10.34,9.31,18.81,28.7,26H224A8,8,0,0,1,232,128Z"/></svg>
