<svg preserveAspectRatio="none" width="100%" height="100%" overflow="visible" style="display: block;" viewBox="0 0 75.1859 29.3803" fill="none" xmlns="http://www.w3.org/2000/svg">
<g id="Group">
<path id="Vector" d="M20.5992 23.0785V5.90909C20.5992 2.64463 17.9545 0 14.6901 0H7.66529C7.27273 0 6.88016 0.165289 6.61157 0.433884L4.54545 2.5C4.17355 2.8719 3.53306 2.60331 3.53306 2.08678V0.371901C3.53306 0.165289 3.36777 0 3.16115 0H0.371898C0.165287 0 0 0.165289 0 0.371901V23.0992C0 23.3058 0.165287 23.4711 0.371898 23.4711H3.16115C3.36777 23.4711 3.53306 23.3058 3.53306 23.0992V3.5124H14.5868C15.9711 3.5124 17.0868 4.6281 17.0868 6.0124V23.0992C17.0868 23.3058 17.2521 23.4711 17.4587 23.4711H20.2479C20.4545 23.4711 20.6198 23.3058 20.6198 23.0992L20.5992 23.0785Z" fill="var(--fill-0, #75DEFF)"/>
<path id="Vector_2" d="M45.2892 19.8967H44.4008C43.8636 19.8967 43.4297 19.4628 43.4297 18.9256V5.26861C43.4297 2.35539 41.0743 1.46464e-05 38.1611 1.46464e-05H25.4338C25.2272 1.46464e-05 25.0619 0.165304 25.0619 0.371915V3.16117C25.0619 3.36778 25.2272 3.53307 25.4338 3.53307H37.1281C38.6776 3.53307 39.9173 4.77274 39.9173 6.32233V8.98762C39.9173 9.4215 39.5661 9.77274 39.1322 9.77274H26.8801C24.6487 9.77274 22.8512 11.5703 22.8512 13.8017V18.4091C22.8512 21.1984 25.1239 23.4711 27.9132 23.4711H35.7851C36.1776 23.4711 36.5702 23.3058 36.8388 23.0372L38.9049 20.9711C39.2768 20.5992 39.9173 20.8678 39.9173 21.3843V21.8802C39.9173 22.7479 40.6198 23.4504 41.4876 23.4504H45.3099C45.5165 23.4504 45.6818 23.2851 45.6818 23.0785V20.248C45.6818 20.0413 45.5165 19.876 45.3099 19.876L45.2892 19.8967ZM39.9173 19.1529C39.9173 19.5868 39.5661 19.938 39.1322 19.938H28.8636C27.4793 19.938 26.3636 18.8223 26.3636 17.438V15.186C26.3636 14.1116 27.2314 13.2438 28.3057 13.2438H39.1115C39.5454 13.2438 39.8967 13.5951 39.8967 14.0289V19.1322L39.9173 19.1529Z" fill="var(--fill-0, #75DEFF)"/>
<path id="Vector_3" d="M68.1818 1.46464e-05H53.2231C50.3099 1.46464e-05 47.9545 2.35539 47.9545 5.26861V11.0951C47.9545 12.2727 48.9049 13.2232 50.0826 13.2232C54.2562 13.2232 63.0785 13.2645 63.0785 13.2645C64.1529 13.2645 65.0206 14.1322 65.0206 15.2066V17.4587C65.0206 18.843 63.9049 19.9587 62.5206 19.9587C62.5206 19.9587 50.9297 19.9587 48.1818 19.9587C47.9339 19.9587 47.7892 20.248 47.9339 20.4339L49.8967 23.0372C50.1859 23.3265 50.5578 23.4711 50.9504 23.4711H63.2851C66.1777 23.4711 68.5124 21.1364 68.5124 18.2438V13.8223C68.5124 11.5909 66.7149 9.7934 64.4834 9.7934H52.2314C51.7975 9.7934 51.4463 9.44216 51.4463 9.00828V6.34299C51.4463 4.7934 52.6859 3.55373 54.2355 3.55373H68.1405C68.3471 3.55373 68.5124 3.38845 68.5124 3.18183V0.392577C68.5124 0.185965 68.3471 0.0206759 68.1405 0.0206759L68.1818 1.46464e-05Z" fill="var(--fill-0, #75DEFF)"/>
<path id="Vector_4" d="M72.0454 1.52893H70.7851V0.557856H70.4752V2.78926H70.7851V1.83885H72.0454V2.78926H72.3553V0.557856H72.0454V1.52893Z" fill="var(--fill-0, #75DEFF)"/>
<path id="Vector_5" d="M74.3595 1.90084C74.3388 1.83886 74.2975 1.79753 74.2562 1.77687C74.2355 1.77687 74.2148 1.73555 74.1735 1.73555C74.1529 1.73555 74.1115 1.73555 74.0702 1.73555C74.0289 1.73555 73.9876 1.73555 73.9462 1.73555C73.9049 1.73555 73.8636 1.73555 73.8429 1.73555C73.8843 1.73555 73.9049 1.73555 73.9462 1.71489C73.9876 1.71489 74.0082 1.71489 74.0496 1.67357C74.0909 1.67357 74.1115 1.65291 74.1529 1.63225C74.1735 1.63225 74.2149 1.59092 74.2355 1.57026C74.2768 1.52894 74.3182 1.48762 74.3595 1.42563C74.4008 1.36365 74.4008 1.28101 74.4008 1.1777C74.4008 0.950428 74.3388 0.785138 74.1942 0.681833C74.0496 0.578527 73.8429 0.516544 73.595 0.516544H72.5826V2.74795H72.8925V1.94216H73.8843C73.9669 1.94216 74.0289 1.94216 74.0702 1.98349C74.1115 2.00415 74.1115 2.06613 74.1115 2.12811V2.74795H74.4215V2.10745C74.4215 2.00415 74.4215 1.9215 74.3801 1.85952L74.3595 1.90084ZM73.5124 1.71489H72.8719V0.826461H73.5537C73.719 0.826461 73.8636 0.867783 73.9669 0.929767C74.0702 0.99175 74.1115 1.11572 74.1115 1.28101C74.1115 1.4463 74.1115 1.40497 74.0702 1.4463C74.0496 1.50828 74.0082 1.5496 73.9462 1.59092C73.8843 1.63225 73.8223 1.65291 73.7603 1.69423C73.6983 1.71489 73.6157 1.73555 73.533 1.73555L73.5124 1.71489Z" fill="var(--fill-0, #75DEFF)"/>
<path id="Vector_6" d="M74.9793 0.020696H69.876C69.7727 0.020696 69.6694 0.103341 69.6694 0.227308V3.28516C69.6694 3.38846 69.752 3.49177 69.876 3.49177H74.9793C75.0826 3.49177 75.1859 3.40913 75.1859 3.28516V0.227308C75.1859 0.124002 75.1033 0.020696 74.9793 0.020696ZM75.1239 3.28516C75.1239 3.3678 75.0619 3.40913 75 3.40913H69.8967C69.814 3.40913 69.7727 3.34714 69.7727 3.28516V0.227308C69.7727 0.144663 69.8347 0.103341 69.8967 0.103341H75C75.0826 0.103341 75.1239 0.165324 75.1239 0.227308V3.28516Z" fill="var(--fill-0, #75DEFF)"/>
<g id="Group_2">
<path id="Vector_7" d="M0.0206338 29.2976V26.6116H0.268567V29.2976H0.0206338Z" fill="var(--fill-0, #75DEFF)"/>
<path id="Vector_8" d="M1.48757 29.2976V26.6116H1.98344L3.07848 29.153H3.1198V26.6116H3.36773V29.2976H2.87187L1.77683 26.7563H1.7355V29.2976H1.48757Z" fill="var(--fill-0, #75DEFF)"/>
<path id="Vector_9" d="M5.26856 29.2976V26.8389H4.38013V26.6116H6.40493V26.8389H5.51649V29.2976H5.26856Z" fill="var(--fill-0, #75DEFF)"/>
<path id="Vector_10" d="M7.41734 29.2976V26.6116H9.02891V26.8389H7.66527V27.8513H8.9256V28.0786H7.66527V29.091H9.04957V29.3183H7.41734V29.2976Z" fill="var(--fill-0, #75DEFF)"/>
<path id="Vector_11" d="M10.1653 29.2976V26.6116H10.4132V29.0703H11.8181V29.2976H10.1653Z" fill="var(--fill-0, #75DEFF)"/>
<path id="Vector_12" d="M12.8305 29.2976V26.6116H13.0785V29.0703H14.4834V29.2976H12.8305Z" fill="var(--fill-0, #75DEFF)"/>
<path id="Vector_13" d="M15.4958 29.2976V26.6116H15.7438V29.2976H15.4958Z" fill="var(--fill-0, #75DEFF)"/>
<path id="Vector_14" d="M17.8925 29.3389C17.6859 29.3389 17.5 29.2976 17.3553 29.215C17.2107 29.1323 17.0867 29.0083 17.0041 28.8431C16.9215 28.6778 16.8801 28.4918 16.8801 28.2439V27.6447C16.8801 27.2935 16.9834 27.0249 17.1694 26.8389C17.3553 26.653 17.6033 26.5703 17.9132 26.5703C18.2231 26.5703 18.4504 26.653 18.6157 26.8389C18.781 27.0042 18.8636 27.2522 18.8636 27.5414H18.6157C18.6157 27.3761 18.595 27.2521 18.533 27.1488C18.4917 27.0455 18.4091 26.9629 18.3058 26.9009C18.2025 26.8389 18.0785 26.7976 17.9132 26.7976C17.6653 26.7976 17.4793 26.8803 17.3347 27.0249C17.1901 27.1695 17.1281 27.3968 17.1281 27.6654V28.2852C17.1281 28.5538 17.1901 28.7604 17.3347 28.9257C17.4793 29.0703 17.6653 29.153 17.9132 29.153C18.1611 29.153 18.3264 29.091 18.4504 28.9464C18.5743 28.8017 18.6157 28.6158 18.6157 28.3885V28.3059H17.7272V28.0993H18.8429V29.3389H18.6157V29.029H18.5743C18.5537 29.091 18.4917 29.153 18.4504 29.1943C18.3884 29.2563 18.3264 29.2976 18.2231 29.3183C18.1405 29.3596 18.0165 29.3596 17.8719 29.3596L17.8925 29.3389Z" fill="var(--fill-0, #75DEFF)"/>
<path id="Vector_15" d="M20.062 29.2976V26.6116H21.6735V26.8389H20.3099V27.8513H21.5702V28.0786H20.3099V29.091H21.6942V29.3183H20.062V29.2976Z" fill="var(--fill-0, #75DEFF)"/>
<path id="Vector_16" d="M22.8099 29.2976V26.6116H23.3058L24.4008 29.153H24.4421V26.6116H24.6901V29.2976H24.1942L23.0992 26.7563H23.0578V29.2976H22.8099Z" fill="var(--fill-0, #75DEFF)"/>
<path id="Vector_17" d="M26.5909 29.2976V26.8389H25.7025V26.6116H27.7273V26.8389H26.8388V29.2976H26.5909Z" fill="var(--fill-0, #75DEFF)"/>
<path id="Vector_18" d="M30.2066 29.2976V26.6116H31.1983C31.3636 26.6116 31.5082 26.6323 31.6322 26.6943C31.7562 26.7563 31.8595 26.8389 31.9421 26.9422C32.0248 27.0455 32.0454 27.1902 32.0454 27.3554V27.3968C32.0454 27.5621 32.0041 27.686 31.9421 27.81C31.8595 27.9133 31.7562 28.0166 31.6322 28.0579C31.5082 28.1199 31.3636 28.1406 31.219 28.1406H30.4752V29.2563H30.2272L30.2066 29.2976ZM30.4545 27.9546H31.1777C31.3636 27.9546 31.5289 27.9133 31.6322 27.81C31.7355 27.7067 31.7975 27.5827 31.7975 27.4174V27.3761C31.7975 27.2108 31.7355 27.0662 31.6322 26.9835C31.5289 26.8802 31.3636 26.8389 31.1777 26.8389H30.4545V27.9546Z" fill="var(--fill-0, #75DEFF)"/>
<path id="Vector_19" d="M33.0785 29.2976V26.6116H34.6901V26.8389H33.3264V27.8513H34.5867V28.0786H33.3264V29.091H34.7107V29.3183H33.0785V29.2976Z" fill="var(--fill-0, #75DEFF)"/>
<path id="Vector_20" d="M36.7562 29.3389C36.4463 29.3389 36.1983 29.2563 36.0124 29.0704C35.8264 28.8844 35.7231 28.6158 35.7231 28.2646V27.6654C35.7231 27.3142 35.8264 27.0456 36.0124 26.8596C36.1983 26.6737 36.4463 26.591 36.7562 26.591C37.0661 26.591 37.314 26.6737 37.5 26.8596C37.6859 27.0456 37.7892 27.3142 37.7892 27.6654V28.2646C37.7892 28.6158 37.6859 28.8844 37.5 29.0704C37.314 29.2563 37.0661 29.3389 36.7562 29.3389ZM36.7562 29.1323C37.0041 29.1323 37.1901 29.0497 37.3347 28.9051C37.4793 28.7604 37.5413 28.5332 37.5413 28.2646V27.6447C37.5413 27.3761 37.4793 27.1695 37.3347 27.0042C37.1901 26.8596 37.0041 26.777 36.7562 26.777C36.5082 26.777 36.3223 26.8596 36.1777 27.0042C36.033 27.1489 35.9711 27.3761 35.9711 27.6447V28.2646C35.9711 28.5332 36.033 28.7398 36.1777 28.9051C36.3223 29.0497 36.5082 29.1323 36.7562 29.1323Z" fill="var(--fill-0, #75DEFF)"/>
<path id="Vector_21" d="M38.9256 29.2976V26.6116H39.9173C40.0826 26.6116 40.2273 26.6323 40.3512 26.6943C40.4752 26.7563 40.5785 26.8389 40.6611 26.9422C40.7438 27.0455 40.7644 27.1902 40.7644 27.3554V27.3968C40.7644 27.5621 40.7231 27.686 40.6611 27.81C40.5785 27.9133 40.4752 28.0166 40.3512 28.0579C40.2273 28.1199 40.0826 28.1406 39.938 28.1406H39.1942V29.2563H38.9463L38.9256 29.2976ZM39.1735 27.9546H39.8967C40.0826 27.9546 40.2479 27.9133 40.3512 27.81C40.4545 27.7067 40.5165 27.5827 40.5165 27.4174V27.3761C40.5165 27.2108 40.4545 27.0662 40.3512 26.9835C40.2479 26.8802 40.0826 26.8389 39.8967 26.8389H39.1735V27.9546Z" fill="var(--fill-0, #75DEFF)"/>
<path id="Vector_22" d="M41.7975 29.2976V26.6116H42.0454V29.0703H43.4504V29.2976H41.7975Z" fill="var(--fill-0, #75DEFF)"/>
<path id="Vector_23" d="M44.4628 29.2976V26.6116H46.0744V26.8389H44.7107V27.8513H45.971V28.0786H44.7107V29.091H46.095V29.3183H44.4628V29.2976Z" fill="var(--fill-0, #75DEFF)"/>
<path id="Vector_24" d="M49.6487 29.3389C49.4628 29.3389 49.2768 29.2976 49.1322 29.2356C48.9876 29.1737 48.8636 29.0704 48.781 28.9257C48.6983 28.7811 48.657 28.6158 48.657 28.3885V28.3059H48.9049V28.3885C48.9049 28.6365 48.9669 28.8224 49.1115 28.9464C49.2562 29.0704 49.4421 29.1323 49.6487 29.1323C49.8553 29.1323 50.0413 29.091 50.1653 28.9877C50.2892 28.8844 50.3512 28.7604 50.3512 28.5951C50.3512 28.4299 50.3306 28.4092 50.2686 28.3472C50.2066 28.2852 50.1446 28.2232 50.0413 28.1819C49.938 28.1406 49.8347 28.0993 49.7107 28.0786L49.4628 28.0166C49.3182 27.9753 49.1942 27.934 49.0702 27.872C48.9463 27.81 48.8636 27.748 48.8016 27.6447C48.7396 27.5414 48.6983 27.4381 48.6983 27.2935C48.6983 27.1489 48.7396 27.0249 48.8016 26.9216C48.8636 26.8183 48.9876 26.7356 49.1115 26.6737C49.2355 26.6117 49.4008 26.591 49.5661 26.591C49.7314 26.591 49.8967 26.6117 50.0413 26.6737C50.1859 26.7356 50.2892 26.8183 50.3719 26.9423C50.4545 27.0662 50.4958 27.2109 50.4958 27.3968V27.5828H50.2479V27.3968C50.2479 27.2522 50.2272 27.1489 50.1653 27.0662C50.1033 26.9836 50.0206 26.9216 49.9173 26.8803C49.814 26.839 49.6901 26.8183 49.5661 26.8183C49.3801 26.8183 49.2355 26.8596 49.1115 26.9423C48.9876 27.0249 48.9256 27.1489 48.9256 27.3142C48.9256 27.4794 48.9463 27.5001 49.0082 27.5621C49.0496 27.6241 49.1322 27.6861 49.2148 27.7067C49.2975 27.748 49.4215 27.7894 49.5248 27.81L49.7727 27.872C49.9173 27.9133 50.0413 27.9547 50.1653 27.996C50.2892 28.058 50.3719 28.1199 50.4545 28.2232C50.5165 28.3266 50.5578 28.4505 50.5578 28.5951C50.5578 28.7398 50.5165 28.8844 50.4339 29.0084C50.3512 29.1323 50.2479 29.215 50.1033 29.277C49.9587 29.3389 49.7934 29.3803 49.6074 29.3803L49.6487 29.3389Z" fill="var(--fill-0, #75DEFF)"/>
<path id="Vector_25" d="M52.314 29.2976V28.2439L51.343 26.6323H51.6322L52.4173 27.9753H52.4587L53.2438 26.6323H53.533L52.562 28.2439V29.2976H52.314Z" fill="var(--fill-0, #75DEFF)"/>
<path id="Vector_26" d="M55.3099 29.3389C55.1239 29.3389 54.938 29.2976 54.7934 29.2356C54.6487 29.1737 54.5248 29.0704 54.4421 28.9257C54.3595 28.7811 54.3182 28.6158 54.3182 28.3885V28.3059H54.5661V28.3885C54.5661 28.6365 54.6281 28.8224 54.7727 28.9464C54.9173 29.0704 55.1033 29.1323 55.3099 29.1323C55.5165 29.1323 55.7025 29.091 55.8264 28.9877C55.9504 28.8844 56.0124 28.7604 56.0124 28.5951C56.0124 28.4299 55.9917 28.4092 55.9297 28.3472C55.8677 28.2852 55.8058 28.2232 55.7025 28.1819C55.5992 28.1406 55.4958 28.0993 55.3719 28.0786L55.1239 28.0166C54.9793 27.9753 54.8554 27.934 54.7314 27.872C54.6074 27.81 54.5248 27.748 54.4628 27.6447C54.4008 27.5414 54.3595 27.4381 54.3595 27.2935C54.3595 27.1489 54.4008 27.0249 54.4628 26.9216C54.5248 26.8183 54.6487 26.7356 54.7727 26.6737C54.8967 26.6117 55.062 26.591 55.2273 26.591C55.3925 26.591 55.5578 26.6117 55.7025 26.6737C55.8471 26.7356 55.9504 26.8183 56.033 26.9423C56.1157 27.0662 56.157 27.2109 56.157 27.3968V27.5828H55.9091V27.3968C55.9091 27.2522 55.8884 27.1489 55.8264 27.0662C55.7644 26.9836 55.6818 26.9216 55.5785 26.8803C55.4752 26.839 55.3512 26.8183 55.2273 26.8183C55.0413 26.8183 54.8967 26.8596 54.7727 26.9423C54.6487 27.0249 54.5868 27.1489 54.5868 27.3142C54.5868 27.4794 54.6074 27.5001 54.6694 27.5621C54.7107 27.6241 54.7934 27.6861 54.876 27.7067C54.9587 27.748 55.0826 27.7894 55.1859 27.81L55.4339 27.872C55.5785 27.9133 55.7025 27.9547 55.8264 27.996C55.9504 28.058 56.033 28.1199 56.1157 28.2232C56.1777 28.3266 56.219 28.4505 56.219 28.5951C56.219 28.7398 56.1777 28.8844 56.095 29.0084C56.0124 29.1323 55.9091 29.215 55.7644 29.277C55.6198 29.3389 55.4545 29.3803 55.2686 29.3803L55.3099 29.3389Z" fill="var(--fill-0, #75DEFF)"/>
<path id="Vector_27" d="M57.9132 29.2976V26.8389H57.0248V26.6116H59.0496V26.8389H58.1611V29.2976H57.9132Z" fill="var(--fill-0, #75DEFF)"/>
<path id="Vector_28" d="M60.0619 29.2976V26.6116H61.6735V26.8389H60.3099V27.8513H61.5702V28.0786H60.3099V29.091H61.6942V29.3183H60.0619V29.2976Z" fill="var(--fill-0, #75DEFF)"/>
<path id="Vector_29" d="M62.8099 29.2976V26.6116H63.2851L64.0909 29.153H64.1322L64.938 26.6116H65.4132V29.2976H65.1859V26.7563H65.1446L64.3388 29.2976H63.9049L63.0991 26.7563H63.0578V29.2976H62.8305H62.8099Z" fill="var(--fill-0, #75DEFF)"/>
<path id="Vector_30" d="M67.5413 29.3389C67.3553 29.3389 67.1694 29.2976 67.0248 29.2356C66.8801 29.1737 66.7562 29.0704 66.6735 28.9257C66.5909 28.7811 66.5496 28.6158 66.5496 28.3885V28.3059H66.7975V28.3885C66.7975 28.6365 66.8595 28.8224 67.0041 28.9464C67.1487 29.0704 67.3347 29.1323 67.5413 29.1323C67.7479 29.1323 67.9338 29.091 68.0578 28.9877C68.1818 28.8844 68.2438 28.7604 68.2438 28.5951C68.2438 28.4299 68.2231 28.4092 68.1611 28.3472C68.0991 28.2852 68.0372 28.2232 67.9339 28.1819C67.8305 28.1406 67.7272 28.0993 67.6033 28.0786L67.3553 28.0166C67.2107 27.9753 67.0867 27.934 66.9628 27.872C66.8388 27.81 66.7562 27.748 66.6942 27.6447C66.6322 27.5414 66.5909 27.4381 66.5909 27.2935C66.5909 27.1489 66.6322 27.0249 66.6942 26.9216C66.7562 26.8183 66.8801 26.7356 67.0041 26.6737C67.1281 26.6117 67.2933 26.591 67.4586 26.591C67.6239 26.591 67.7892 26.6117 67.9339 26.6737C68.0785 26.7356 68.1818 26.8183 68.2644 26.9423C68.3471 27.0662 68.3884 27.2109 68.3884 27.3968V27.5828H68.1405V27.3968C68.1405 27.2522 68.1198 27.1489 68.0578 27.0662C67.9958 26.9836 67.9132 26.9216 67.8099 26.8803C67.7066 26.839 67.5826 26.8183 67.4586 26.8183C67.2727 26.8183 67.1281 26.8596 67.0041 26.9423C66.8801 27.0249 66.8181 27.1489 66.8181 27.3142C66.8181 27.4794 66.8388 27.5001 66.9008 27.5621C66.9421 27.6241 67.0248 27.6861 67.1074 27.7067C67.1901 27.748 67.314 27.7894 67.4173 27.81L67.6652 27.872C67.8099 27.9133 67.9338 27.9547 68.0578 27.996C68.1818 28.058 68.2644 28.1199 68.3471 28.2232C68.4091 28.3266 68.4504 28.4505 68.4504 28.5951C68.4504 28.7398 68.4091 28.8844 68.3264 29.0084C68.2438 29.1323 68.1405 29.215 67.9958 29.277C67.8512 29.3389 67.6859 29.3803 67.5 29.3803L67.5413 29.3389Z" fill="var(--fill-0, #75DEFF)"/>
</g>
</g>
</svg>
