<svg preserveAspectRatio="none" width="100%" height="100%" overflow="visible" style="display: block;" viewBox="0 0 13.75 16.8749" fill="none" xmlns="http://www.w3.org/2000/svg">
<path id="Vector" d="M10 10.6249C10 10.7906 9.93415 10.9496 9.81694 11.0668C9.69973 11.184 9.54076 11.2499 9.375 11.2499H4.375C4.20924 11.2499 4.05027 11.184 3.93306 11.0668C3.81585 10.9496 3.75 10.7906 3.75 10.6249C3.75 10.4591 3.81585 10.3002 3.93306 10.1829C4.05027 10.0657 4.20924 9.99989 4.375 9.99989H9.375C9.54076 9.99989 9.69973 10.0657 9.81694 10.1829C9.93415 10.3002 10 10.4591 10 10.6249ZM9.375 7.49989H4.375C4.20924 7.49989 4.05027 7.56573 3.93306 7.68295C3.81585 7.80016 3.75 7.95913 3.75 8.12489C3.75 8.29065 3.81585 8.44962 3.93306 8.56683C4.05027 8.68404 4.20924 8.74989 4.375 8.74989H9.375C9.54076 8.74989 9.69973 8.68404 9.81694 8.56683C9.93415 8.44962 10 8.29065 10 8.12489C10 7.95913 9.93415 7.80016 9.81694 7.68295C9.69973 7.56573 9.54076 7.49989 9.375 7.49989ZM13.75 2.49989V15.6249C13.75 15.9564 13.6183 16.2743 13.3839 16.5088C13.1495 16.7432 12.8315 16.8749 12.5 16.8749H1.25C0.918479 16.8749 0.600537 16.7432 0.366116 16.5088C0.131696 16.2743 0 15.9564 0 15.6249V2.49989C0 2.16837 0.131696 1.85042 0.366116 1.616C0.600537 1.38158 0.918479 1.24989 1.25 1.24989H4.08281C4.43399 0.856703 4.86424 0.542119 5.34541 0.326729C5.82658 0.111339 6.34782 0 6.875 0C7.40218 0 7.92341 0.111339 8.40459 0.326729C8.88576 0.542119 9.31601 0.856703 9.66719 1.24989H12.5C12.8315 1.24989 13.1495 1.38158 13.3839 1.616C13.6183 1.85042 13.75 2.16837 13.75 2.49989ZM4.375 3.74989H9.375C9.375 3.08685 9.11161 2.45096 8.64277 1.98212C8.17393 1.51328 7.53804 1.24989 6.875 1.24989C6.21196 1.24989 5.57607 1.51328 5.10723 1.98212C4.63839 2.45096 4.375 3.08685 4.375 3.74989ZM12.5 2.49989H10.4102C10.5523 2.90131 10.625 3.32403 10.625 3.74989V4.37489C10.625 4.54065 10.5592 4.69962 10.4419 4.81683C10.3247 4.93404 10.1658 4.99989 10 4.99989H3.75C3.58424 4.99989 3.42527 4.93404 3.30806 4.81683C3.19085 4.69962 3.125 4.54065 3.125 4.37489V3.74989C3.12501 3.32403 3.19767 2.90131 3.33984 2.49989H1.25V15.6249H12.5V2.49989Z" fill="var(--fill-0, #FCFCFC)"/>
</svg>
