<svg preserveAspectRatio="none" width="100%" height="100%" overflow="visible" style="display: block;" viewBox="0 0 13.75 13.75" fill="none" xmlns="http://www.w3.org/2000/svg">
<path id="Vector" d="M3.125 1.38885e-06C2.50693 1.38885e-06 1.90275 0.183279 1.38884 0.526659C0.874941 0.870038 0.474402 1.3581 0.237878 1.92912C0.00135401 2.50013 -0.0605314 3.12847 0.0600474 3.73466C0.180626 4.34085 0.478254 4.89767 0.915293 5.33471C1.35233 5.77175 1.90915 6.06938 2.51534 6.18995C3.12153 6.31053 3.74987 6.24865 4.32089 6.01212C4.89191 5.7756 5.37996 5.37506 5.72334 4.86116C6.06672 4.34725 6.25 3.74307 6.25 3.125C6.25 2.2962 5.92076 1.50134 5.33471 0.915293C4.74866 0.329241 3.9538 1.38885e-06 3.125 1.38885e-06ZM3.125 5C2.75416 5 2.39165 4.89003 2.08331 4.68401C1.77496 4.47798 1.53464 4.18514 1.39273 3.84253C1.25081 3.49992 1.21368 3.12292 1.28603 2.75921C1.35838 2.39549 1.53695 2.0614 1.79918 1.79918C2.0614 1.53695 2.39549 1.35838 2.75921 1.28603C3.12292 1.21368 3.49992 1.25081 3.84253 1.39273C4.18514 1.53464 4.47798 1.77496 4.68401 2.08331C4.89003 2.39165 5 2.75416 5 3.125C5 3.62228 4.80246 4.0992 4.45083 4.45083C4.0992 4.80246 3.62228 5 3.125 5ZM10.625 6.25C11.2431 6.25 11.8473 6.06672 12.3612 5.72334C12.8751 5.37996 13.2756 4.89191 13.5121 4.32089C13.7486 3.74987 13.8105 3.12153 13.69 2.51534C13.5694 1.90915 13.2717 1.35233 12.8347 0.915293C12.3977 0.478254 11.8408 0.180626 11.2347 0.0600474C10.6285 -0.0605314 10.0001 0.00135401 9.42911 0.237878C8.8581 0.474402 8.37004 0.874941 8.02666 1.38884C7.68328 1.90275 7.5 2.50693 7.5 3.125C7.5 3.9538 7.82924 4.74866 8.41529 5.33471C9.00134 5.92076 9.7962 6.25 10.625 6.25ZM10.625 1.25C10.9958 1.25 11.3584 1.35997 11.6667 1.566C11.975 1.77202 12.2154 2.06486 12.3573 2.40747C12.4992 2.75008 12.5363 3.12708 12.464 3.4908C12.3916 3.85451 12.213 4.1886 11.9508 4.45083C11.6886 4.71305 11.3545 4.89163 10.9908 4.96397C10.6271 5.03632 10.2501 4.99919 9.90747 4.85728C9.56486 4.71536 9.27202 4.47504 9.06599 4.1667C8.85997 3.85835 8.75 3.49584 8.75 3.125C8.75 2.62772 8.94754 2.15081 9.29917 1.79918C9.65081 1.44755 10.1277 1.25 10.625 1.25ZM3.125 7.5C2.50693 7.5 1.90275 7.68328 1.38884 8.02666C0.874941 8.37004 0.474402 8.8581 0.237878 9.42911C0.00135401 10.0001 -0.0605314 10.6285 0.0600474 11.2347C0.180626 11.8408 0.478254 12.3977 0.915293 12.8347C1.35233 13.2717 1.90915 13.5694 2.51534 13.69C3.12153 13.8105 3.74987 13.7486 4.32089 13.5121C4.89191 13.2756 5.37996 12.8751 5.72334 12.3612C6.06672 11.8473 6.25 11.2431 6.25 10.625C6.25 9.7962 5.92076 9.00134 5.33471 8.41529C4.74866 7.82924 3.9538 7.5 3.125 7.5ZM3.125 12.5C2.75416 12.5 2.39165 12.39 2.08331 12.184C1.77496 11.978 1.53464 11.6851 1.39273 11.3425C1.25081 10.9999 1.21368 10.6229 1.28603 10.2592C1.35838 9.89549 1.53695 9.5614 1.79918 9.29917C2.0614 9.03695 2.39549 8.85838 2.75921 8.78603C3.12292 8.71368 3.49992 8.75081 3.84253 8.89273C4.18514 9.03464 4.47798 9.27496 4.68401 9.58331C4.89003 9.89165 5 10.2542 5 10.625C5 11.1223 4.80246 11.5992 4.45083 11.9508C4.0992 12.3025 3.62228 12.5 3.125 12.5ZM13.75 10.625C13.75 10.7908 13.6842 10.9497 13.5669 11.0669C13.4497 11.1842 13.2908 11.25 13.125 11.25H11.25V13.125C11.25 13.2908 11.1842 13.4497 11.0669 13.5669C10.9497 13.6842 10.7908 13.75 10.625 13.75C10.4592 13.75 10.3003 13.6842 10.1831 13.5669C10.0658 13.4497 10 13.2908 10 13.125V11.25H8.125C7.95924 11.25 7.80027 11.1842 7.68306 11.0669C7.56585 10.9497 7.5 10.7908 7.5 10.625C7.5 10.4592 7.56585 10.3003 7.68306 10.1831C7.80027 10.0658 7.95924 10 8.125 10H10V8.125C10 7.95924 10.0658 7.80027 10.1831 7.68306C10.3003 7.56585 10.4592 7.5 10.625 7.5C10.7908 7.5 10.9497 7.56585 11.0669 7.68306C11.1842 7.80027 11.25 7.95924 11.25 8.125V10H13.125C13.2908 10 13.4497 10.0658 13.5669 10.1831C13.6842 10.3003 13.75 10.4592 13.75 10.625Z" fill="var(--fill-0, #FCFCFC)"/>
</svg>
