<svg preserveAspectRatio="none" width="100%" height="100%" overflow="visible" style="display: block;" viewBox="0 0 13.75 16.25" fill="none" xmlns="http://www.w3.org/2000/svg">
<path id="Vector" d="M13.125 0H2.5C1.83696 0 1.20107 0.263392 0.732233 0.732233C0.263392 1.20107 0 1.83696 0 2.5V15.625C0 15.7908 0.0658481 15.9497 0.183058 16.0669C0.300269 16.1842 0.45924 16.25 0.625 16.25H11.875C12.0408 16.25 12.1997 16.1842 12.3169 16.0669C12.4342 15.9497 12.5 15.7908 12.5 15.625C12.5 15.4592 12.4342 15.3003 12.3169 15.1831C12.1997 15.0658 12.0408 15 11.875 15H1.25C1.25 14.6685 1.3817 14.3505 1.61612 14.1161C1.85054 13.8817 2.16848 13.75 2.5 13.75H13.125C13.2908 13.75 13.4497 13.6842 13.5669 13.5669C13.6842 13.4497 13.75 13.2908 13.75 13.125V0.625C13.75 0.45924 13.6842 0.300268 13.5669 0.183058C13.4497 0.065848 13.2908 0 13.125 0ZM6.25 1.25H10V6.875L8.49922 5.75C8.39103 5.66886 8.25945 5.625 8.12422 5.625C7.98899 5.625 7.8574 5.66886 7.74922 5.75L6.25 6.875V1.25ZM12.5 12.5H2.5C2.06105 12.4994 1.62977 12.615 1.25 12.8352V2.5C1.25 2.16848 1.3817 1.85054 1.61612 1.61612C1.85054 1.3817 2.16848 1.25 2.5 1.25H5V8.125C5 8.24107 5.03232 8.35485 5.09334 8.45358C5.15436 8.55232 5.24168 8.63211 5.34549 8.68402C5.44931 8.73592 5.56553 8.7579 5.68113 8.74748C5.79673 8.73705 5.90714 8.69464 6 8.625L8.125 7.03125L10.2508 8.625C10.3588 8.70598 10.49 8.74983 10.625 8.75C10.7908 8.75 10.9497 8.68415 11.0669 8.56694C11.1842 8.44973 11.25 8.29076 11.25 8.125V1.25H12.5V12.5Z" fill="var(--fill-0, #FCFCFC)"/>
</svg>
