<svg preserveAspectRatio="none" width="100%" height="100%" overflow="visible" style="display: block;" viewBox="0 0 20 20" fill="none" xmlns="http://www.w3.org/2000/svg">
  <path d="M8 1.75C5.79 1.75 4 3.54 4 5.75C4 7.96 5.79 9.75 8 9.75C10.21 9.75 12 7.96 12 5.75C12 3.54 10.21 1.75 8 1.75ZM8 3.25C9.38 3.25 10.5 4.37 10.5 5.75C10.5 7.13 9.38 8.25 8 8.25C6.62 8.25 5.5 7.13 5.5 5.75C5.5 4.37 6.62 3.25 8 3.25ZM14.5 9.5L10.5 11V14C10.5 16.43 12.17 18.69 14.5 19.25C16.83 18.69 18.5 16.43 18.5 14V11L14.5 9.5ZM8 10.75C4.55 10.75 1.75 13.55 1.75 17V18.25H9.27C9.1 17.65 9 17.04 9 16.39V14.4C9 13.34 9.36 12.36 9.96 11.58C9.34 11.05 8.7 10.75 8 10.75ZM14.5 11.1L17 12.04V14C17 15.63 15.96 17.13 14.5 17.65V14.5H12V12.04L14.5 11.1Z" fill="var(--fill-0, #FCFCFC)"/>
</svg>
