<svg preserveAspectRatio="none" width="100%" height="100%" overflow="visible" style="display: block;" viewBox="0 0 16.25 15.625" fill="none" xmlns="http://www.w3.org/2000/svg">
<path id="Vector" d="M15 3.75H11.875C11.875 2.75544 11.4799 1.80161 10.7767 1.09835C10.0734 0.395088 9.11956 0 8.125 0C7.13044 0 6.17661 0.395088 5.47335 1.09835C4.77009 1.80161 4.375 2.75544 4.375 3.75H1.25C0.918479 3.75 0.600537 3.8817 0.366116 4.11612C0.131696 4.35054 0 4.66848 0 5V14.375C0 14.7065 0.131696 15.0245 0.366116 15.2589C0.600537 15.4933 0.918479 15.625 1.25 15.625H15C15.3315 15.625 15.6495 15.4933 15.8839 15.2589C16.1183 15.0245 16.25 14.7065 16.25 14.375V5C16.25 4.66848 16.1183 4.35054 15.8839 4.11612C15.6495 3.8817 15.3315 3.75 15 3.75ZM8.125 1.25C8.78804 1.25 9.42393 1.51339 9.89277 1.98223C10.3616 2.45107 10.625 3.08696 10.625 3.75H5.625C5.625 3.08696 5.88839 2.45107 6.35723 1.98223C6.82607 1.51339 7.46196 1.25 8.125 1.25ZM15 14.375H1.25V5H15V14.375Z" fill="var(--fill-0, #FCFCFC)"/>
</svg>
