<svg preserveAspectRatio="none" width="100%" height="100%" overflow="visible" style="display: block;" viewBox="0 0 16.2502 16.2501" fill="none" xmlns="http://www.w3.org/2000/svg">
<path id="Vector" d="M8.85799 0.00472608C8.68534 -0.0103302 8.51144 0.0106811 8.34734 0.0664255C8.18324 0.12217 8.03252 0.211429 7.90476 0.328535C7.77701 0.445642 7.675 0.588035 7.60521 0.746674C7.53543 0.905312 7.49939 1.07673 7.4994 1.25004V4.42738C7.49724 4.72221 7.60028 5.00815 7.79001 5.23382C7.97975 5.4595 8.24374 5.61012 8.53455 5.65863C8.99921 5.73659 9.43238 5.94426 9.78414 6.25772C10.1359 6.57117 10.3919 6.97764 10.5227 7.43028C10.6534 7.88292 10.6536 8.36331 10.5233 8.81605C10.3929 9.2688 10.1372 9.67549 9.78569 9.98924C9.4342 10.303 9.00121 10.511 8.53661 10.5894C8.07202 10.6677 7.59474 10.6132 7.1598 10.432C6.72486 10.2509 6.34995 9.95057 6.0783 9.56561C5.80664 9.18066 5.6493 8.72678 5.6244 8.25629C5.59237 7.6141 5.72362 7.08441 6.01502 6.67348C6.18629 6.43457 6.26704 6.14256 6.24285 5.84961C6.21867 5.55665 6.09112 5.28184 5.88299 5.07426L3.72518 2.86566C3.60218 2.74266 3.45487 2.64668 3.29266 2.58387C3.13045 2.52106 2.95691 2.49279 2.78315 2.50088C2.60939 2.50897 2.43923 2.55323 2.28356 2.63085C2.12788 2.70846 1.99012 2.8177 1.87908 2.9516C0.576722 4.51253 -0.0905606 6.50639 0.00989578 8.53679C0.110352 10.5672 0.97119 12.4854 2.42127 13.9102C3.93752 15.4145 5.98853 16.256 8.1244 16.25H8.2408C10.3537 16.2141 12.37 15.3587 13.8642 13.8643C15.3584 12.37 16.2136 10.3536 16.2494 8.24066C16.308 3.99848 13.0611 0.381289 8.85799 0.00472608ZM2.8369 3.74535L4.99393 5.94769V5.95238C4.67375 6.41186 4.47268 6.94366 4.40877 7.50004H1.27752C1.40269 6.11885 1.94676 4.80884 2.8369 3.74535ZM1.2783 8.75004H4.42674C4.55635 9.51797 4.92184 10.2265 5.47245 10.7772C6.02307 11.328 6.7315 11.6937 7.4994 11.8235V14.9719C5.89865 14.8257 4.39975 14.1232 3.26321 12.9865C2.12667 11.8498 1.42434 10.3508 1.2783 8.75004ZM12.9791 12.9797C11.847 14.1197 10.3494 14.8242 8.7494 14.9696V11.8235C9.47368 11.7029 10.146 11.3704 10.6814 10.868C11.1933 10.3911 11.5616 9.78052 11.7446 9.10527C11.9276 8.43002 11.9181 7.71704 11.7171 7.04693C11.5161 6.37681 11.1316 5.77628 10.6072 5.31323C10.0828 4.85017 9.43925 4.54306 8.7494 4.4266V1.25004C12.3056 1.56879 15.0517 4.63129 14.9994 8.22269C14.9748 10.0117 14.2494 11.7198 12.9791 12.9797Z" fill="var(--fill-0, #FCFCFC)"/>
</svg>
